<mxfile host="www.draw.io" agent="Mozilla/5.0 (X11; Linux x86_64) AppleWebKit/537.36 (KHTML, like Gecko) Chrome/133.0.0.0 Safari/537.36" version="28.1.0" pages="2">
  <diagram name="Page-1" id="qppaxaAvu7sBOEG88T9b">
    <mxGraphModel dx="1672" dy="710" grid="0" gridSize="5" guides="1" tooltips="1" connect="1" arrows="1" fold="1" page="1" pageScale="1" pageWidth="850" pageHeight="1100" math="0" shadow="0">
      <root>
        <mxCell id="0" />
        <mxCell id="1" parent="0" />
        <mxCell id="e2VgaAorvQk2nJ2vAixI-48" value="" style="rounded=0;whiteSpace=wrap;html=1;dashed=1;dashPattern=12 12;" vertex="1" parent="1">
          <mxGeometry x="305" y="60" width="803" height="670" as="geometry" />
        </mxCell>
        <mxCell id="JlOYUlAgknKE4x3HQeJ9-28" value="" style="rounded=0;whiteSpace=wrap;html=1;dashed=1;" parent="1" vertex="1">
          <mxGeometry x="317.5" y="280" width="442.5" height="210" as="geometry" />
        </mxCell>
        <mxCell id="JlOYUlAgknKE4x3HQeJ9-19" value="" style="edgeStyle=orthogonalEdgeStyle;rounded=0;orthogonalLoop=1;jettySize=auto;html=1;strokeWidth=2;targetPerimeterSpacing=3;sourcePerimeterSpacing=3;startArrow=classic;startFill=1;exitX=1;exitY=0.5;exitDx=0;exitDy=0;exitPerimeter=0;entryX=0;entryY=0.5;entryDx=0;entryDy=0;entryPerimeter=0;" parent="1" source="JlOYUlAgknKE4x3HQeJ9-1" target="JlOYUlAgknKE4x3HQeJ9-18" edge="1">
          <mxGeometry relative="1" as="geometry" />
        </mxCell>
        <mxCell id="JlOYUlAgknKE4x3HQeJ9-1" value="External Gateway" style="verticalLabelPosition=bottom;verticalAlign=top;html=1;shape=mxgraph.flowchart.or;" parent="1" vertex="1">
          <mxGeometry x="360" y="372.5" width="35" height="35" as="geometry" />
        </mxCell>
        <mxCell id="JlOYUlAgknKE4x3HQeJ9-3" value="" style="edgeStyle=orthogonalEdgeStyle;rounded=0;orthogonalLoop=1;jettySize=auto;html=1;startArrow=classic;startFill=1;fillColor=#1ba1e2;strokeColor=#006EAF;strokeWidth=2;" parent="1" edge="1">
          <mxGeometry relative="1" as="geometry">
            <mxPoint x="283" y="389.83" as="sourcePoint" />
            <mxPoint x="355" y="390" as="targetPoint" />
          </mxGeometry>
        </mxCell>
        <mxCell id="JlOYUlAgknKE4x3HQeJ9-2" value="Internet" style="ellipse;shape=cloud;whiteSpace=wrap;html=1;" parent="1" vertex="1">
          <mxGeometry x="170" y="350" width="120" height="80" as="geometry" />
        </mxCell>
        <mxCell id="JlOYUlAgknKE4x3HQeJ9-9" style="rounded=0;orthogonalLoop=1;jettySize=auto;html=1;startArrow=classic;startFill=1;targetPerimeterSpacing=0;sourcePerimeterSpacing=4;fillColor=#1ba1e2;strokeColor=#006EAF;strokeWidth=2;" parent="1" source="JlOYUlAgknKE4x3HQeJ9-6" target="JlOYUlAgknKE4x3HQeJ9-2" edge="1">
          <mxGeometry relative="1" as="geometry" />
        </mxCell>
        <mxCell id="JlOYUlAgknKE4x3HQeJ9-6" value="Client" style="rounded=0;whiteSpace=wrap;html=1;" parent="1" vertex="1">
          <mxGeometry x="20" y="320" width="80" height="30" as="geometry" />
        </mxCell>
        <mxCell id="JlOYUlAgknKE4x3HQeJ9-10" value="" style="edgeStyle=orthogonalEdgeStyle;rounded=0;orthogonalLoop=1;jettySize=auto;html=1;startArrow=classic;startFill=1;sourcePerimeterSpacing=3;fillColor=#1ba1e2;strokeColor=#006EAF;strokeWidth=2;" parent="1" source="JlOYUlAgknKE4x3HQeJ9-7" target="JlOYUlAgknKE4x3HQeJ9-2" edge="1">
          <mxGeometry relative="1" as="geometry" />
        </mxCell>
        <mxCell id="JlOYUlAgknKE4x3HQeJ9-7" value="Client" style="rounded=0;whiteSpace=wrap;html=1;" parent="1" vertex="1">
          <mxGeometry x="20" y="375" width="80" height="30" as="geometry" />
        </mxCell>
        <mxCell id="JlOYUlAgknKE4x3HQeJ9-11" value="" style="rounded=0;orthogonalLoop=1;jettySize=auto;html=1;startArrow=classic;startFill=1;sourcePerimeterSpacing=3;fillColor=#1ba1e2;strokeColor=#006EAF;strokeWidth=2;" parent="1" source="JlOYUlAgknKE4x3HQeJ9-8" target="JlOYUlAgknKE4x3HQeJ9-2" edge="1">
          <mxGeometry relative="1" as="geometry" />
        </mxCell>
        <mxCell id="JlOYUlAgknKE4x3HQeJ9-8" value="Client" style="rounded=0;whiteSpace=wrap;html=1;" parent="1" vertex="1">
          <mxGeometry x="20" y="430" width="80" height="30" as="geometry" />
        </mxCell>
        <mxCell id="JlOYUlAgknKE4x3HQeJ9-16" value="" style="group" parent="1" vertex="1" connectable="0">
          <mxGeometry x="590" y="307.5" width="140" height="165" as="geometry" />
        </mxCell>
        <mxCell id="JlOYUlAgknKE4x3HQeJ9-14" value="" style="rounded=0;whiteSpace=wrap;html=1;" parent="JlOYUlAgknKE4x3HQeJ9-16" vertex="1">
          <mxGeometry width="130" height="165" as="geometry" />
        </mxCell>
        <mxCell id="JlOYUlAgknKE4x3HQeJ9-15" value="&lt;span style=&quot;caret-color: rgba(0, 0, 0, 0);&quot;&gt;APP Deployment&lt;/span&gt;" style="text;strokeColor=none;align=center;fillColor=none;html=1;verticalAlign=middle;whiteSpace=wrap;rounded=0;" parent="JlOYUlAgknKE4x3HQeJ9-16" vertex="1">
          <mxGeometry x="10" y="150" width="110" height="10" as="geometry" />
        </mxCell>
        <mxCell id="JlOYUlAgknKE4x3HQeJ9-21" value="&lt;span style=&quot;caret-color: rgba(0, 0, 0, 0);&quot;&gt;POD 1&lt;/span&gt;" style="rounded=0;whiteSpace=wrap;html=1;" parent="JlOYUlAgknKE4x3HQeJ9-16" vertex="1">
          <mxGeometry x="40" y="22.5" width="50" height="42.5" as="geometry" />
        </mxCell>
        <mxCell id="JlOYUlAgknKE4x3HQeJ9-26" value="&lt;span style=&quot;caret-color: rgba(0, 0, 0, 0);&quot;&gt;POD N&lt;/span&gt;" style="rounded=0;whiteSpace=wrap;html=1;" parent="JlOYUlAgknKE4x3HQeJ9-16" vertex="1">
          <mxGeometry x="40" y="92.5" width="50" height="42.5" as="geometry" />
        </mxCell>
        <mxCell id="JlOYUlAgknKE4x3HQeJ9-27" value="..." style="text;strokeColor=none;align=center;fillColor=none;html=1;verticalAlign=middle;whiteSpace=wrap;rounded=0;" parent="JlOYUlAgknKE4x3HQeJ9-16" vertex="1">
          <mxGeometry x="35" y="62.5" width="60" height="30" as="geometry" />
        </mxCell>
        <mxCell id="JlOYUlAgknKE4x3HQeJ9-20" value="" style="edgeStyle=orthogonalEdgeStyle;rounded=0;orthogonalLoop=1;jettySize=auto;html=1;startArrow=classic;startFill=1;targetPerimeterSpacing=3;sourcePerimeterSpacing=3;exitX=1;exitY=0.5;exitDx=0;exitDy=0;exitPerimeter=0;entryX=0;entryY=0.5;entryDx=0;entryDy=0;strokeWidth=2;" parent="1" source="JlOYUlAgknKE4x3HQeJ9-18" target="JlOYUlAgknKE4x3HQeJ9-14" edge="1">
          <mxGeometry relative="1" as="geometry" />
        </mxCell>
        <mxCell id="JlOYUlAgknKE4x3HQeJ9-18" value="Service Gateway" style="verticalLabelPosition=bottom;verticalAlign=top;html=1;shape=mxgraph.flowchart.or;" parent="1" vertex="1">
          <mxGeometry x="500" y="372.5" width="35" height="35" as="geometry" />
        </mxCell>
        <mxCell id="JlOYUlAgknKE4x3HQeJ9-29" value="&lt;span style=&quot;color: rgb(0, 0, 0); font-family: Helvetica; font-size: 12px; font-style: normal; font-variant-ligatures: normal; font-variant-caps: normal; font-weight: 400; letter-spacing: normal; orphans: 2; text-align: center; text-indent: 0px; text-transform: none; widows: 2; word-spacing: 0px; -webkit-text-stroke-width: 0px; caret-color: rgba(0, 0, 0, 0); white-space: normal; text-decoration-thickness: initial; text-decoration-style: initial; text-decoration-color: initial; float: none; display: inline !important;&quot;&gt;APP Namespace&lt;/span&gt;&lt;div&gt;&lt;span style=&quot;color: rgb(0, 0, 0); font-family: Helvetica; font-size: 12px; font-style: normal; font-variant-ligatures: normal; font-variant-caps: normal; font-weight: 400; letter-spacing: normal; orphans: 2; text-align: center; text-indent: 0px; text-transform: none; widows: 2; word-spacing: 0px; -webkit-text-stroke-width: 0px; caret-color: rgba(0, 0, 0, 0); white-space: normal; text-decoration-thickness: initial; text-decoration-style: initial; text-decoration-color: initial; float: none; display: inline !important;&quot;&gt;(API Core functions)&lt;/span&gt;&lt;/div&gt;" style="text;whiteSpace=wrap;html=1;" parent="1" vertex="1">
          <mxGeometry x="330" y="450" width="120" height="30" as="geometry" />
        </mxCell>
        <mxCell id="JlOYUlAgknKE4x3HQeJ9-32" value="" style="group" parent="1" vertex="1" connectable="0">
          <mxGeometry x="690" y="130" width="280" height="145" as="geometry" />
        </mxCell>
        <mxCell id="JlOYUlAgknKE4x3HQeJ9-30" value="" style="rounded=0;whiteSpace=wrap;html=1;dashed=1;" parent="JlOYUlAgknKE4x3HQeJ9-32" vertex="1">
          <mxGeometry y="-35" width="280" height="135" as="geometry" />
        </mxCell>
        <mxCell id="JlOYUlAgknKE4x3HQeJ9-31" value="&lt;span style=&quot;color: rgb(0, 0, 0); font-family: Helvetica; font-size: 12px; font-style: normal; font-variant-ligatures: normal; font-variant-caps: normal; font-weight: 400; letter-spacing: normal; orphans: 2; text-align: center; text-indent: 0px; text-transform: none; widows: 2; word-spacing: 0px; -webkit-text-stroke-width: 0px; caret-color: rgba(0, 0, 0, 0); white-space: normal; text-decoration-thickness: initial; text-decoration-style: initial; text-decoration-color: initial; float: none; display: inline !important;&quot;&gt;Redis Namespace&lt;/span&gt;&lt;div style=&quot;text-align: center;&quot;&gt;(Session Storage)&lt;/div&gt;" style="text;whiteSpace=wrap;html=1;" parent="JlOYUlAgknKE4x3HQeJ9-32" vertex="1">
          <mxGeometry x="10" y="60" width="120" height="30" as="geometry" />
        </mxCell>
        <mxCell id="JlOYUlAgknKE4x3HQeJ9-61" value="" style="edgeStyle=orthogonalEdgeStyle;rounded=0;orthogonalLoop=1;jettySize=auto;html=1;startArrow=classic;startFill=1;entryX=-0.008;entryY=0.44;entryDx=0;entryDy=0;entryPerimeter=0;fillColor=#e51400;strokeColor=#B20000;strokeWidth=2;" parent="JlOYUlAgknKE4x3HQeJ9-32" source="JlOYUlAgknKE4x3HQeJ9-33" target="JlOYUlAgknKE4x3HQeJ9-37" edge="1">
          <mxGeometry relative="1" as="geometry" />
        </mxCell>
        <mxCell id="JlOYUlAgknKE4x3HQeJ9-33" value="Service Gateway" style="verticalLabelPosition=bottom;verticalAlign=top;html=1;shape=mxgraph.flowchart.or;" parent="JlOYUlAgknKE4x3HQeJ9-32" vertex="1">
          <mxGeometry x="40" width="35" height="35" as="geometry" />
        </mxCell>
        <mxCell id="JlOYUlAgknKE4x3HQeJ9-36" value="" style="group" parent="JlOYUlAgknKE4x3HQeJ9-32" vertex="1" connectable="0">
          <mxGeometry x="130" y="-26" width="140" height="165" as="geometry" />
        </mxCell>
        <mxCell id="JlOYUlAgknKE4x3HQeJ9-37" value="" style="rounded=0;whiteSpace=wrap;html=1;" parent="JlOYUlAgknKE4x3HQeJ9-36" vertex="1">
          <mxGeometry width="130" height="100" as="geometry" />
        </mxCell>
        <mxCell id="JlOYUlAgknKE4x3HQeJ9-38" value="&lt;span style=&quot;caret-color: rgba(0, 0, 0, 0);&quot;&gt;Redis Deployment&lt;/span&gt;" style="text;strokeColor=none;align=center;fillColor=none;html=1;verticalAlign=middle;whiteSpace=wrap;rounded=0;" parent="JlOYUlAgknKE4x3HQeJ9-36" vertex="1">
          <mxGeometry x="10" y="80" width="110" height="10" as="geometry" />
        </mxCell>
        <mxCell id="JlOYUlAgknKE4x3HQeJ9-39" value="&lt;span style=&quot;caret-color: rgba(0, 0, 0, 0);&quot;&gt;POD 1&lt;/span&gt;" style="rounded=0;whiteSpace=wrap;html=1;" parent="JlOYUlAgknKE4x3HQeJ9-36" vertex="1">
          <mxGeometry x="40" y="22.5" width="50" height="42.5" as="geometry" />
        </mxCell>
        <mxCell id="JlOYUlAgknKE4x3HQeJ9-42" value="" style="rounded=0;whiteSpace=wrap;html=1;dashed=1;" parent="1" vertex="1">
          <mxGeometry x="690" y="520" width="280" height="190" as="geometry" />
        </mxCell>
        <mxCell id="JlOYUlAgknKE4x3HQeJ9-43" value="&lt;span style=&quot;color: rgb(0, 0, 0); font-family: Helvetica; font-size: 12px; font-style: normal; font-variant-ligatures: normal; font-variant-caps: normal; font-weight: 400; letter-spacing: normal; orphans: 2; text-align: center; text-indent: 0px; text-transform: none; widows: 2; word-spacing: 0px; -webkit-text-stroke-width: 0px; caret-color: rgba(0, 0, 0, 0); white-space: normal; text-decoration-thickness: initial; text-decoration-style: initial; text-decoration-color: initial; float: none; display: inline !important;&quot;&gt;DB-Cluster Namespace&lt;/span&gt;&lt;div&gt;&lt;span style=&quot;color: rgb(0, 0, 0); font-family: Helvetica; font-size: 12px; font-style: normal; font-variant-ligatures: normal; font-variant-caps: normal; font-weight: 400; letter-spacing: normal; orphans: 2; text-align: center; text-indent: 0px; text-transform: none; widows: 2; word-spacing: 0px; -webkit-text-stroke-width: 0px; caret-color: rgba(0, 0, 0, 0); white-space: normal; text-decoration-thickness: initial; text-decoration-style: initial; text-decoration-color: initial; float: none; display: inline !important;&quot;&gt;(Data Storage)&lt;/span&gt;&lt;/div&gt;" style="text;whiteSpace=wrap;html=1;" parent="1" vertex="1">
          <mxGeometry x="700" y="650" width="110" height="30" as="geometry" />
        </mxCell>
        <mxCell id="JlOYUlAgknKE4x3HQeJ9-56" style="edgeStyle=orthogonalEdgeStyle;rounded=0;orthogonalLoop=1;jettySize=auto;html=1;targetPerimeterSpacing=0;sourcePerimeterSpacing=0;jumpStyle=arc;strokeWidth=2;startArrow=classic;startFill=1;entryX=-0.004;entryY=0.228;entryDx=0;entryDy=0;entryPerimeter=0;fillColor=#6a00ff;strokeColor=#3700CC;" parent="1" target="JlOYUlAgknKE4x3HQeJ9-49" edge="1">
          <mxGeometry relative="1" as="geometry">
            <mxPoint x="810" y="567.42" as="targetPoint" />
            <mxPoint x="765" y="567.42" as="sourcePoint" />
            <Array as="points">
              <mxPoint x="780" y="567" />
            </Array>
          </mxGeometry>
        </mxCell>
        <mxCell id="JlOYUlAgknKE4x3HQeJ9-44" value="Service Gateway" style="verticalLabelPosition=bottom;verticalAlign=top;html=1;shape=mxgraph.flowchart.or;" parent="1" vertex="1">
          <mxGeometry x="730" y="550" width="35" height="35" as="geometry" />
        </mxCell>
        <mxCell id="JlOYUlAgknKE4x3HQeJ9-48" value="" style="group" parent="1" vertex="1" connectable="0">
          <mxGeometry x="820" y="530" width="140" height="165" as="geometry" />
        </mxCell>
        <mxCell id="JlOYUlAgknKE4x3HQeJ9-49" value="" style="rounded=0;whiteSpace=wrap;html=1;" parent="JlOYUlAgknKE4x3HQeJ9-48" vertex="1">
          <mxGeometry width="130" height="165" as="geometry" />
        </mxCell>
        <mxCell id="JlOYUlAgknKE4x3HQeJ9-50" value="&lt;span style=&quot;caret-color: rgba(0, 0, 0, 0);&quot;&gt;DB Statefulset&lt;/span&gt;" style="text;strokeColor=none;align=center;fillColor=none;html=1;verticalAlign=middle;whiteSpace=wrap;rounded=0;" parent="JlOYUlAgknKE4x3HQeJ9-48" vertex="1">
          <mxGeometry x="10" y="150" width="110" height="10" as="geometry" />
        </mxCell>
        <mxCell id="JlOYUlAgknKE4x3HQeJ9-51" value="&lt;span style=&quot;caret-color: rgba(0, 0, 0, 0);&quot;&gt;POD 1&lt;/span&gt;" style="rounded=0;whiteSpace=wrap;html=1;" parent="JlOYUlAgknKE4x3HQeJ9-48" vertex="1">
          <mxGeometry x="40" y="22.5" width="50" height="42.5" as="geometry" />
        </mxCell>
        <mxCell id="JlOYUlAgknKE4x3HQeJ9-52" value="&lt;span style=&quot;caret-color: rgba(0, 0, 0, 0);&quot;&gt;POD N&lt;/span&gt;" style="rounded=0;whiteSpace=wrap;html=1;" parent="JlOYUlAgknKE4x3HQeJ9-48" vertex="1">
          <mxGeometry x="40" y="92.5" width="50" height="42.5" as="geometry" />
        </mxCell>
        <mxCell id="JlOYUlAgknKE4x3HQeJ9-53" value="..." style="text;strokeColor=none;align=center;fillColor=none;html=1;verticalAlign=middle;whiteSpace=wrap;rounded=0;" parent="JlOYUlAgknKE4x3HQeJ9-48" vertex="1">
          <mxGeometry x="35" y="62.5" width="60" height="30" as="geometry" />
        </mxCell>
        <mxCell id="JlOYUlAgknKE4x3HQeJ9-57" style="edgeStyle=orthogonalEdgeStyle;rounded=0;orthogonalLoop=1;jettySize=auto;html=1;entryX=0;entryY=0.5;entryDx=0;entryDy=0;entryPerimeter=0;sourcePerimeterSpacing=3;startArrow=classic;startFill=1;strokeWidth=2;fillColor=#6a00ff;strokeColor=#3700CC;" parent="1" source="JlOYUlAgknKE4x3HQeJ9-14" target="JlOYUlAgknKE4x3HQeJ9-44" edge="1">
          <mxGeometry relative="1" as="geometry">
            <Array as="points">
              <mxPoint x="655" y="568" />
            </Array>
          </mxGeometry>
        </mxCell>
        <mxCell id="JlOYUlAgknKE4x3HQeJ9-60" style="edgeStyle=orthogonalEdgeStyle;rounded=0;orthogonalLoop=1;jettySize=auto;html=1;entryX=0;entryY=0.5;entryDx=0;entryDy=0;entryPerimeter=0;startArrow=classic;startFill=1;fillColor=#e51400;strokeColor=#B20000;strokeWidth=2;" parent="1" source="JlOYUlAgknKE4x3HQeJ9-14" target="JlOYUlAgknKE4x3HQeJ9-33" edge="1">
          <mxGeometry relative="1" as="geometry">
            <Array as="points">
              <mxPoint x="655" y="147" />
            </Array>
          </mxGeometry>
        </mxCell>
        <mxCell id="e2VgaAorvQk2nJ2vAixI-2" value="" style="edgeStyle=orthogonalEdgeStyle;rounded=0;orthogonalLoop=1;jettySize=auto;html=1;startArrow=none;startFill=0;entryX=0;entryY=0.5;entryDx=0;entryDy=0;entryPerimeter=0;fillColor=#1ba1e2;strokeColor=#006EAF;strokeWidth=2;endArrow=none;endFill=0;" edge="1" parent="1">
          <mxGeometry relative="1" as="geometry">
            <mxPoint x="60" y="579" as="sourcePoint" />
            <mxPoint x="130" y="579" as="targetPoint" />
          </mxGeometry>
        </mxCell>
        <mxCell id="e2VgaAorvQk2nJ2vAixI-3" value="" style="edgeStyle=orthogonalEdgeStyle;rounded=0;orthogonalLoop=1;jettySize=auto;html=1;startArrow=none;startFill=0;entryX=0;entryY=0.5;entryDx=0;entryDy=0;entryPerimeter=0;fillColor=#1ba1e2;strokeColor=#000000;strokeWidth=2;endArrow=none;endFill=0;" edge="1" parent="1">
          <mxGeometry relative="1" as="geometry">
            <mxPoint x="60" y="621" as="sourcePoint" />
            <mxPoint x="130" y="621" as="targetPoint" />
          </mxGeometry>
        </mxCell>
        <mxCell id="e2VgaAorvQk2nJ2vAixI-4" value="" style="edgeStyle=orthogonalEdgeStyle;rounded=0;orthogonalLoop=1;jettySize=auto;html=1;startArrow=none;startFill=0;entryX=0;entryY=0.5;entryDx=0;entryDy=0;entryPerimeter=0;fillColor=#e51400;strokeColor=#B20000;strokeWidth=2;endArrow=none;endFill=0;" edge="1" parent="1">
          <mxGeometry relative="1" as="geometry">
            <mxPoint x="62" y="664.58" as="sourcePoint" />
            <mxPoint x="132" y="664.58" as="targetPoint" />
          </mxGeometry>
        </mxCell>
        <mxCell id="e2VgaAorvQk2nJ2vAixI-5" value="" style="edgeStyle=orthogonalEdgeStyle;rounded=0;orthogonalLoop=1;jettySize=auto;html=1;startArrow=none;startFill=0;entryX=0;entryY=0.5;entryDx=0;entryDy=0;entryPerimeter=0;fillColor=#6a00ff;strokeColor=#3700CC;strokeWidth=2;endArrow=none;endFill=0;" edge="1" parent="1">
          <mxGeometry relative="1" as="geometry">
            <mxPoint x="62" y="704" as="sourcePoint" />
            <mxPoint x="132" y="704" as="targetPoint" />
          </mxGeometry>
        </mxCell>
        <mxCell id="e2VgaAorvQk2nJ2vAixI-6" value="HTTPS" style="text;strokeColor=none;align=left;fillColor=none;html=1;verticalAlign=middle;whiteSpace=wrap;rounded=0;" vertex="1" parent="1">
          <mxGeometry x="133.0033333333335" y="564.0033333333334" width="60" height="30" as="geometry" />
        </mxCell>
        <mxCell id="e2VgaAorvQk2nJ2vAixI-7" value="HTTP" style="text;strokeColor=none;align=left;fillColor=none;html=1;verticalAlign=middle;whiteSpace=wrap;rounded=0;" vertex="1" parent="1">
          <mxGeometry x="133.00333333333347" y="604.9966666666668" width="60" height="30" as="geometry" />
        </mxCell>
        <mxCell id="e2VgaAorvQk2nJ2vAixI-8" value="Redis over TCP" style="text;strokeColor=none;align=left;fillColor=none;html=1;verticalAlign=middle;whiteSpace=wrap;rounded=0;" vertex="1" parent="1">
          <mxGeometry x="133" y="650" width="92" height="30" as="geometry" />
        </mxCell>
        <mxCell id="e2VgaAorvQk2nJ2vAixI-9" value="MySQL over TCP" style="text;strokeColor=none;align=left;fillColor=none;html=1;verticalAlign=middle;whiteSpace=wrap;rounded=0;" vertex="1" parent="1">
          <mxGeometry x="133" y="690" width="100" height="30" as="geometry" />
        </mxCell>
        <mxCell id="e2VgaAorvQk2nJ2vAixI-10" value="" style="rounded=0;whiteSpace=wrap;html=1;dashed=1;" vertex="1" parent="1">
          <mxGeometry x="793" y="270" width="280" height="227" as="geometry" />
        </mxCell>
        <mxCell id="e2VgaAorvQk2nJ2vAixI-11" value="&lt;span style=&quot;color: rgb(0, 0, 0); font-family: Helvetica; font-size: 12px; font-style: normal; font-variant-ligatures: normal; font-variant-caps: normal; font-weight: 400; letter-spacing: normal; orphans: 2; text-indent: 0px; text-transform: none; widows: 2; word-spacing: 0px; -webkit-text-stroke-width: 0px; caret-color: rgba(0, 0, 0, 0); white-space: normal; text-decoration-thickness: initial; text-decoration-style: initial; text-decoration-color: initial; float: none; display: inline !important;&quot;&gt;Observability Namespace&lt;/span&gt;&lt;div style=&quot;&quot;&gt;(Metrics &amp;amp; Logs)&lt;/div&gt;" style="text;whiteSpace=wrap;html=1;align=left;" vertex="1" parent="1">
          <mxGeometry x="802" y="436.5" width="120" height="30" as="geometry" />
        </mxCell>
        <mxCell id="e2VgaAorvQk2nJ2vAixI-12" value="" style="edgeStyle=orthogonalEdgeStyle;rounded=0;orthogonalLoop=1;jettySize=auto;html=1;startArrow=classic;startFill=1;entryX=-0.008;entryY=0.44;entryDx=0;entryDy=0;entryPerimeter=0;fillColor=#e51400;strokeColor=#000000;strokeWidth=2;" edge="1" parent="1" source="e2VgaAorvQk2nJ2vAixI-13" target="e2VgaAorvQk2nJ2vAixI-14">
          <mxGeometry relative="1" as="geometry" />
        </mxCell>
        <mxCell id="e2VgaAorvQk2nJ2vAixI-13" value="Service Gateway" style="verticalLabelPosition=bottom;verticalAlign=top;html=1;shape=mxgraph.flowchart.or;" vertex="1" parent="1">
          <mxGeometry x="826" y="372.5" width="35" height="35" as="geometry" />
        </mxCell>
        <mxCell id="e2VgaAorvQk2nJ2vAixI-14" value="" style="rounded=0;whiteSpace=wrap;html=1;" vertex="1" parent="1">
          <mxGeometry x="928" y="279" width="130" height="98.5" as="geometry" />
        </mxCell>
        <mxCell id="e2VgaAorvQk2nJ2vAixI-15" value="&lt;span style=&quot;caret-color: rgba(0, 0, 0, 0);&quot;&gt;Prometheus Statefulset&lt;/span&gt;" style="text;strokeColor=none;align=center;fillColor=none;html=1;verticalAlign=middle;whiteSpace=wrap;rounded=0;" vertex="1" parent="1">
          <mxGeometry x="938" y="354" width="110" height="10" as="geometry" />
        </mxCell>
        <mxCell id="e2VgaAorvQk2nJ2vAixI-19" value="Protocols Legend" style="text;strokeColor=none;align=left;fillColor=none;html=1;verticalAlign=middle;whiteSpace=wrap;rounded=0;fontSize=21;" vertex="1" parent="1">
          <mxGeometry x="60.5" y="523" width="205" height="30" as="geometry" />
        </mxCell>
        <mxCell id="e2VgaAorvQk2nJ2vAixI-21" style="edgeStyle=orthogonalEdgeStyle;rounded=0;orthogonalLoop=1;jettySize=auto;html=1;entryX=0;entryY=0.5;entryDx=0;entryDy=0;entryPerimeter=0;strokeWidth=2;" edge="1" parent="1" source="JlOYUlAgknKE4x3HQeJ9-14" target="e2VgaAorvQk2nJ2vAixI-13">
          <mxGeometry relative="1" as="geometry" />
        </mxCell>
        <mxCell id="e2VgaAorvQk2nJ2vAixI-22" value="" style="rounded=0;whiteSpace=wrap;html=1;" vertex="1" parent="1">
          <mxGeometry x="928" y="399" width="130" height="85" as="geometry" />
        </mxCell>
        <mxCell id="e2VgaAorvQk2nJ2vAixI-23" value="&lt;span style=&quot;caret-color: rgba(0, 0, 0, 0);&quot;&gt;Loki Daemonset&lt;/span&gt;" style="text;strokeColor=none;align=center;fillColor=none;html=1;verticalAlign=middle;whiteSpace=wrap;rounded=0;" vertex="1" parent="1">
          <mxGeometry x="938" y="466.5" width="110" height="10" as="geometry" />
        </mxCell>
        <mxCell id="e2VgaAorvQk2nJ2vAixI-24" value="&lt;span style=&quot;caret-color: rgba(0, 0, 0, 0);&quot;&gt;PODs 1...N&lt;/span&gt;" style="rounded=0;whiteSpace=wrap;html=1;" vertex="1" parent="1">
          <mxGeometry x="968" y="414" width="50" height="33" as="geometry" />
        </mxCell>
        <mxCell id="e2VgaAorvQk2nJ2vAixI-25" style="edgeStyle=orthogonalEdgeStyle;rounded=0;orthogonalLoop=1;jettySize=auto;html=1;entryX=1;entryY=0.5;entryDx=0;entryDy=0;entryPerimeter=0;strokeWidth=2;startArrow=classic;startFill=1;" edge="1" parent="1" source="e2VgaAorvQk2nJ2vAixI-22" target="e2VgaAorvQk2nJ2vAixI-13">
          <mxGeometry relative="1" as="geometry" />
        </mxCell>
        <mxCell id="e2VgaAorvQk2nJ2vAixI-36" value="&lt;span style=&quot;caret-color: rgba(0, 0, 0, 0);&quot;&gt;POD X&lt;/span&gt;" style="rounded=0;whiteSpace=wrap;html=1;" vertex="1" parent="1">
          <mxGeometry x="994" y="284" width="50" height="26.5" as="geometry" />
        </mxCell>
        <mxCell id="e2VgaAorvQk2nJ2vAixI-35" value="&lt;span style=&quot;caret-color: rgba(0, 0, 0, 0);&quot;&gt;POD A&lt;/span&gt;" style="rounded=0;whiteSpace=wrap;html=1;" vertex="1" parent="1">
          <mxGeometry x="960" y="296" width="50" height="26.5" as="geometry" />
        </mxCell>
        <mxCell id="e2VgaAorvQk2nJ2vAixI-16" value="&lt;span style=&quot;caret-color: rgba(0, 0, 0, 0);&quot;&gt;POD P&lt;/span&gt;" style="rounded=0;whiteSpace=wrap;html=1;" vertex="1" parent="1">
          <mxGeometry x="938" y="312" width="50" height="26.5" as="geometry" />
        </mxCell>
        <mxCell id="e2VgaAorvQk2nJ2vAixI-38" value="" style="group" vertex="1" connectable="0" parent="1">
          <mxGeometry x="313" y="117" width="331" height="135" as="geometry" />
        </mxCell>
        <mxCell id="e2VgaAorvQk2nJ2vAixI-26" value="" style="rounded=0;whiteSpace=wrap;html=1;dashed=1;" vertex="1" parent="e2VgaAorvQk2nJ2vAixI-38">
          <mxGeometry y="-23" width="331" height="157" as="geometry" />
        </mxCell>
        <mxCell id="e2VgaAorvQk2nJ2vAixI-27" value="&lt;span style=&quot;color: rgb(0, 0, 0); font-family: Helvetica; font-size: 12px; font-style: normal; font-variant-ligatures: normal; font-variant-caps: normal; font-weight: 400; letter-spacing: normal; orphans: 2; text-indent: 0px; text-transform: none; widows: 2; word-spacing: 0px; -webkit-text-stroke-width: 0px; caret-color: rgba(0, 0, 0, 0); white-space: normal; text-decoration-thickness: initial; text-decoration-style: initial; text-decoration-color: initial; float: none; display: inline !important;&quot;&gt;Grafana Namespace&lt;/span&gt;&lt;div style=&quot;&quot;&gt;(Visualization)&lt;/div&gt;" style="text;whiteSpace=wrap;html=1;align=left;" vertex="1" parent="e2VgaAorvQk2nJ2vAixI-38">
          <mxGeometry x="15" y="93" width="133" height="30" as="geometry" />
        </mxCell>
        <mxCell id="e2VgaAorvQk2nJ2vAixI-28" value="" style="edgeStyle=orthogonalEdgeStyle;rounded=0;orthogonalLoop=1;jettySize=auto;html=1;startArrow=classic;startFill=1;entryX=0;entryY=0.5;entryDx=0;entryDy=0;fillColor=#e51400;strokeColor=#000000;strokeWidth=2;" edge="1" parent="e2VgaAorvQk2nJ2vAixI-38" source="e2VgaAorvQk2nJ2vAixI-29" target="e2VgaAorvQk2nJ2vAixI-30">
          <mxGeometry relative="1" as="geometry">
            <mxPoint x="211.16800000000012" y="39.5" as="targetPoint" />
          </mxGeometry>
        </mxCell>
        <mxCell id="e2VgaAorvQk2nJ2vAixI-29" value="Service&lt;div&gt;Gateway&lt;/div&gt;" style="verticalLabelPosition=bottom;verticalAlign=top;html=1;shape=mxgraph.flowchart.or;" vertex="1" parent="e2VgaAorvQk2nJ2vAixI-38">
          <mxGeometry x="113" y="21.5" width="35" height="35" as="geometry" />
        </mxCell>
        <mxCell id="e2VgaAorvQk2nJ2vAixI-30" value="" style="rounded=0;whiteSpace=wrap;html=1;" vertex="1" parent="e2VgaAorvQk2nJ2vAixI-38">
          <mxGeometry x="212" y="-6.5" width="104" height="91" as="geometry" />
        </mxCell>
        <mxCell id="e2VgaAorvQk2nJ2vAixI-31" value="Grafana&amp;nbsp;&lt;div&gt;Deployment&lt;/div&gt;" style="text;strokeColor=none;align=center;fillColor=none;html=1;verticalAlign=middle;whiteSpace=wrap;rounded=0;" vertex="1" parent="e2VgaAorvQk2nJ2vAixI-38">
          <mxGeometry x="209" y="59" width="110" height="10" as="geometry" />
        </mxCell>
        <mxCell id="e2VgaAorvQk2nJ2vAixI-32" value="&lt;span style=&quot;caret-color: rgba(0, 0, 0, 0);&quot;&gt;POD 1&lt;/span&gt;" style="rounded=0;whiteSpace=wrap;html=1;" vertex="1" parent="e2VgaAorvQk2nJ2vAixI-38">
          <mxGeometry x="239" y="2" width="50" height="34" as="geometry" />
        </mxCell>
        <mxCell id="e2VgaAorvQk2nJ2vAixI-39" value="External&lt;div&gt;Gateway&lt;/div&gt;" style="verticalLabelPosition=bottom;verticalAlign=top;html=1;shape=mxgraph.flowchart.or;" vertex="1" parent="e2VgaAorvQk2nJ2vAixI-38">
          <mxGeometry x="33" y="21.5" width="35" height="35" as="geometry" />
        </mxCell>
        <mxCell id="e2VgaAorvQk2nJ2vAixI-44" style="edgeStyle=orthogonalEdgeStyle;rounded=0;orthogonalLoop=1;jettySize=auto;html=1;exitX=1;exitY=0.5;exitDx=0;exitDy=0;exitPerimeter=0;entryX=0;entryY=0.5;entryDx=0;entryDy=0;entryPerimeter=0;strokeWidth=2;startArrow=classic;startFill=1;" edge="1" parent="e2VgaAorvQk2nJ2vAixI-38" source="e2VgaAorvQk2nJ2vAixI-39" target="e2VgaAorvQk2nJ2vAixI-29">
          <mxGeometry relative="1" as="geometry" />
        </mxCell>
        <mxCell id="e2VgaAorvQk2nJ2vAixI-40" style="edgeStyle=orthogonalEdgeStyle;rounded=0;orthogonalLoop=1;jettySize=auto;html=1;exitX=0.5;exitY=1;exitDx=0;exitDy=0;entryX=0.5;entryY=0;entryDx=0;entryDy=0;entryPerimeter=0;startArrow=classic;startFill=1;strokeWidth=2;" edge="1" parent="1" source="e2VgaAorvQk2nJ2vAixI-30" target="e2VgaAorvQk2nJ2vAixI-13">
          <mxGeometry relative="1" as="geometry">
            <Array as="points">
              <mxPoint x="577" y="265" />
              <mxPoint x="844" y="265" />
            </Array>
          </mxGeometry>
        </mxCell>
        <mxCell id="e2VgaAorvQk2nJ2vAixI-45" value="" style="rounded=0;orthogonalLoop=1;jettySize=auto;html=1;startArrow=classic;startFill=1;fillColor=#1ba1e2;strokeColor=#006EAF;strokeWidth=2;entryX=0;entryY=0.5;entryDx=0;entryDy=0;entryPerimeter=0;edgeStyle=orthogonalEdgeStyle;curved=1;" edge="1" parent="1" source="JlOYUlAgknKE4x3HQeJ9-2" target="e2VgaAorvQk2nJ2vAixI-39">
          <mxGeometry relative="1" as="geometry">
            <mxPoint x="241" y="341" as="sourcePoint" />
            <mxPoint x="281" y="246" as="targetPoint" />
            <Array as="points">
              <mxPoint x="256" y="248" />
              <mxPoint x="258" y="248" />
              <mxPoint x="258" y="156" />
            </Array>
          </mxGeometry>
        </mxCell>
        <mxCell id="e2VgaAorvQk2nJ2vAixI-47" value="System Architecture Diagram" style="text;strokeColor=none;align=left;fillColor=none;html=1;verticalAlign=middle;whiteSpace=wrap;rounded=0;fontSize=25;" vertex="1" parent="1">
          <mxGeometry x="30" y="117" width="60" height="30" as="geometry" />
        </mxCell>
        <mxCell id="e2VgaAorvQk2nJ2vAixI-49" value="&lt;div&gt;&lt;span style=&quot;color: rgb(0, 0, 0); font-family: Helvetica; font-size: 12px; font-style: normal; font-variant-ligatures: normal; font-variant-caps: normal; font-weight: 400; letter-spacing: normal; orphans: 2; text-align: center; text-indent: 0px; text-transform: none; widows: 2; word-spacing: 0px; -webkit-text-stroke-width: 0px; caret-color: rgba(0, 0, 0, 0); white-space: normal; text-decoration-thickness: initial; text-decoration-style: initial; text-decoration-color: initial; float: none; display: inline !important;&quot;&gt;Multi-Node, HA Kubernetes Cluster&lt;/span&gt;&lt;/div&gt;" style="text;whiteSpace=wrap;html=1;" vertex="1" parent="1">
          <mxGeometry x="317.5" y="686" width="120" height="30" as="geometry" />
        </mxCell>
      </root>
    </mxGraphModel>
  </diagram>
  <diagram id="PB-3PM8WBjwQ9Jd-N5Yb" name="Page-2">
    <mxGraphModel dx="1672" dy="710" grid="0" gridSize="10" guides="1" tooltips="1" connect="1" arrows="1" fold="1" page="1" pageScale="1" pageWidth="850" pageHeight="1100" math="0" shadow="0">
      <root>
        <mxCell id="0" />
        <mxCell id="1" parent="0" />
        <mxCell id="Rc3iu7sThzgXzJiv8Mbl-6" value="" style="edgeStyle=orthogonalEdgeStyle;rounded=0;orthogonalLoop=1;jettySize=auto;html=1;entryX=0;entryY=0.5;entryDx=0;entryDy=0;strokeWidth=2;" edge="1" parent="1" source="Rc3iu7sThzgXzJiv8Mbl-1" target="Rc3iu7sThzgXzJiv8Mbl-2">
          <mxGeometry relative="1" as="geometry" />
        </mxCell>
        <mxCell id="Rc3iu7sThzgXzJiv8Mbl-1" value="HTTP request" style="rounded=0;whiteSpace=wrap;html=1;" vertex="1" parent="1">
          <mxGeometry x="27" y="321" width="57" height="57" as="geometry" />
        </mxCell>
        <mxCell id="Rc3iu7sThzgXzJiv8Mbl-8" value="" style="edgeStyle=orthogonalEdgeStyle;rounded=0;orthogonalLoop=1;jettySize=auto;html=1;strokeWidth=2;" edge="1" parent="1" source="Rc3iu7sThzgXzJiv8Mbl-2" target="Rc3iu7sThzgXzJiv8Mbl-7">
          <mxGeometry relative="1" as="geometry" />
        </mxCell>
        <mxCell id="Rc3iu7sThzgXzJiv8Mbl-27" value="" style="edgeStyle=orthogonalEdgeStyle;rounded=0;orthogonalLoop=1;jettySize=auto;html=1;fillColor=#e51400;strokeColor=#B20000;" edge="1" parent="1" source="Rc3iu7sThzgXzJiv8Mbl-2" target="Rc3iu7sThzgXzJiv8Mbl-26">
          <mxGeometry relative="1" as="geometry" />
        </mxCell>
        <mxCell id="Rc3iu7sThzgXzJiv8Mbl-2" value="" style="rounded=0;whiteSpace=wrap;html=1;" vertex="1" parent="1">
          <mxGeometry x="129" y="262" width="89" height="175" as="geometry" />
        </mxCell>
        <mxCell id="Rc3iu7sThzgXzJiv8Mbl-3" value="&lt;div&gt;IP-based rate limiter&lt;/div&gt;Middleware" style="text;strokeColor=none;align=center;fillColor=none;html=1;verticalAlign=middle;whiteSpace=wrap;rounded=0;" vertex="1" parent="1">
          <mxGeometry x="143.49714285714288" y="334.5042857142857" width="60" height="30" as="geometry" />
        </mxCell>
        <mxCell id="Rc3iu7sThzgXzJiv8Mbl-10" value="" style="edgeStyle=orthogonalEdgeStyle;rounded=0;orthogonalLoop=1;jettySize=auto;html=1;entryX=0;entryY=0.5;entryDx=0;entryDy=0;entryPerimeter=0;strokeWidth=2;" edge="1" parent="1" source="Rc3iu7sThzgXzJiv8Mbl-7" target="Rc3iu7sThzgXzJiv8Mbl-11">
          <mxGeometry relative="1" as="geometry">
            <mxPoint x="350" y="349.51428571428573" as="targetPoint" />
          </mxGeometry>
        </mxCell>
        <mxCell id="Rc3iu7sThzgXzJiv8Mbl-31" value="" style="edgeStyle=orthogonalEdgeStyle;rounded=0;orthogonalLoop=1;jettySize=auto;html=1;fillColor=#e51400;strokeColor=#B20000;" edge="1" parent="1" source="Rc3iu7sThzgXzJiv8Mbl-7" target="Rc3iu7sThzgXzJiv8Mbl-29">
          <mxGeometry relative="1" as="geometry" />
        </mxCell>
        <mxCell id="Rc3iu7sThzgXzJiv8Mbl-7" value="Authentication Middleware&lt;div&gt;&lt;br&gt;&lt;/div&gt;" style="rounded=0;whiteSpace=wrap;html=1;" vertex="1" parent="1">
          <mxGeometry x="239" y="262" width="89" height="175" as="geometry" />
        </mxCell>
        <mxCell id="Rc3iu7sThzgXzJiv8Mbl-15" style="edgeStyle=orthogonalEdgeStyle;rounded=0;orthogonalLoop=1;jettySize=auto;html=1;entryX=0;entryY=0.5;entryDx=0;entryDy=0;strokeWidth=2;" edge="1" parent="1" source="Rc3iu7sThzgXzJiv8Mbl-11" target="Rc3iu7sThzgXzJiv8Mbl-13">
          <mxGeometry relative="1" as="geometry">
            <Array as="points">
              <mxPoint x="395" y="47" />
            </Array>
          </mxGeometry>
        </mxCell>
        <mxCell id="Rc3iu7sThzgXzJiv8Mbl-17" value="POST /orders" style="edgeLabel;html=1;align=center;verticalAlign=middle;resizable=0;points=[];" vertex="1" connectable="0" parent="Rc3iu7sThzgXzJiv8Mbl-15">
          <mxGeometry x="0.317" y="-1" relative="1" as="geometry">
            <mxPoint x="-41" y="-30" as="offset" />
          </mxGeometry>
        </mxCell>
        <mxCell id="Rc3iu7sThzgXzJiv8Mbl-32" style="edgeStyle=orthogonalEdgeStyle;rounded=0;orthogonalLoop=1;jettySize=auto;html=1;entryX=0;entryY=0.5;entryDx=0;entryDy=0;strokeWidth=2;" edge="1" parent="1" source="Rc3iu7sThzgXzJiv8Mbl-11" target="Rc3iu7sThzgXzJiv8Mbl-22">
          <mxGeometry relative="1" as="geometry">
            <Array as="points">
              <mxPoint x="395" y="139" />
            </Array>
          </mxGeometry>
        </mxCell>
        <mxCell id="Rc3iu7sThzgXzJiv8Mbl-33" style="edgeStyle=orthogonalEdgeStyle;rounded=0;orthogonalLoop=1;jettySize=auto;html=1;entryX=0;entryY=0.5;entryDx=0;entryDy=0;strokeWidth=2;" edge="1" parent="1" source="Rc3iu7sThzgXzJiv8Mbl-11" target="Rc3iu7sThzgXzJiv8Mbl-23">
          <mxGeometry relative="1" as="geometry">
            <Array as="points">
              <mxPoint x="395" y="232" />
            </Array>
          </mxGeometry>
        </mxCell>
        <mxCell id="Rc3iu7sThzgXzJiv8Mbl-35" style="edgeStyle=orthogonalEdgeStyle;rounded=0;orthogonalLoop=1;jettySize=auto;html=1;exitX=1;exitY=0.5;exitDx=0;exitDy=0;exitPerimeter=0;entryX=0.5;entryY=0;entryDx=0;entryDy=0;fillColor=#e51400;strokeColor=#B20000;" edge="1" parent="1" source="Rc3iu7sThzgXzJiv8Mbl-11" target="Rc3iu7sThzgXzJiv8Mbl-34">
          <mxGeometry relative="1" as="geometry" />
        </mxCell>
        <mxCell id="Rc3iu7sThzgXzJiv8Mbl-36" value="Others" style="edgeLabel;html=1;align=center;verticalAlign=middle;resizable=0;points=[];" vertex="1" connectable="0" parent="Rc3iu7sThzgXzJiv8Mbl-35">
          <mxGeometry x="-0.6405" y="1" relative="1" as="geometry">
            <mxPoint x="-5" y="-9" as="offset" />
          </mxGeometry>
        </mxCell>
        <mxCell id="Rc3iu7sThzgXzJiv8Mbl-11" value="API&lt;div&gt;Gateway&lt;/div&gt;" style="verticalLabelPosition=bottom;verticalAlign=top;html=1;shape=mxgraph.flowchart.or;" vertex="1" parent="1">
          <mxGeometry x="360" y="314.5" width="70" height="70" as="geometry" />
        </mxCell>
        <mxCell id="Rc3iu7sThzgXzJiv8Mbl-19" value="" style="edgeStyle=orthogonalEdgeStyle;rounded=0;orthogonalLoop=1;jettySize=auto;html=1;strokeWidth=2;" edge="1" parent="1" source="Rc3iu7sThzgXzJiv8Mbl-13" target="Rc3iu7sThzgXzJiv8Mbl-18">
          <mxGeometry relative="1" as="geometry" />
        </mxCell>
        <mxCell id="Rc3iu7sThzgXzJiv8Mbl-39" style="edgeStyle=orthogonalEdgeStyle;rounded=0;orthogonalLoop=1;jettySize=auto;html=1;entryX=0.5;entryY=0;entryDx=0;entryDy=0;fillColor=#e51400;strokeColor=#B20000;" edge="1" parent="1" source="Rc3iu7sThzgXzJiv8Mbl-13" target="Rc3iu7sThzgXzJiv8Mbl-38">
          <mxGeometry relative="1" as="geometry">
            <Array as="points">
              <mxPoint x="537" y="87" />
              <mxPoint x="598" y="87" />
              <mxPoint x="598" y="450" />
              <mxPoint x="572" y="450" />
              <mxPoint x="572" y="467" />
            </Array>
          </mxGeometry>
        </mxCell>
        <mxCell id="Rc3iu7sThzgXzJiv8Mbl-13" value="Authorization Middleware" style="rounded=0;whiteSpace=wrap;html=1;" vertex="1" parent="1">
          <mxGeometry x="489.0000000000001" y="17" width="98" height="60" as="geometry" />
        </mxCell>
        <mxCell id="Rc3iu7sThzgXzJiv8Mbl-51" value="" style="edgeStyle=orthogonalEdgeStyle;rounded=0;orthogonalLoop=1;jettySize=auto;html=1;strokeWidth=2;" edge="1" parent="1" source="Rc3iu7sThzgXzJiv8Mbl-18" target="Rc3iu7sThzgXzJiv8Mbl-50">
          <mxGeometry relative="1" as="geometry" />
        </mxCell>
        <mxCell id="Rc3iu7sThzgXzJiv8Mbl-58" style="edgeStyle=orthogonalEdgeStyle;rounded=0;orthogonalLoop=1;jettySize=auto;html=1;entryX=0.5;entryY=0;entryDx=0;entryDy=0;fillColor=#e51400;strokeColor=#B20000;" edge="1" parent="1" source="Rc3iu7sThzgXzJiv8Mbl-18" target="Rc3iu7sThzgXzJiv8Mbl-57">
          <mxGeometry relative="1" as="geometry">
            <Array as="points">
              <mxPoint x="671" y="93" />
              <mxPoint x="731" y="93" />
              <mxPoint x="731" y="451" />
              <mxPoint x="672" y="451" />
            </Array>
          </mxGeometry>
        </mxCell>
        <mxCell id="Rc3iu7sThzgXzJiv8Mbl-18" value="Orders&lt;div&gt;Validator&lt;/div&gt;" style="rounded=0;whiteSpace=wrap;html=1;" vertex="1" parent="1">
          <mxGeometry x="628.3" y="17" width="85.7" height="60" as="geometry" />
        </mxCell>
        <mxCell id="Rc3iu7sThzgXzJiv8Mbl-40" style="edgeStyle=orthogonalEdgeStyle;rounded=0;orthogonalLoop=1;jettySize=auto;html=1;exitX=0.5;exitY=1;exitDx=0;exitDy=0;endArrow=none;endFill=0;fillColor=#e51400;strokeColor=#B20000;" edge="1" parent="1" source="Rc3iu7sThzgXzJiv8Mbl-22">
          <mxGeometry relative="1" as="geometry">
            <mxPoint x="598.2047619047619" y="189" as="targetPoint" />
          </mxGeometry>
        </mxCell>
        <mxCell id="Rc3iu7sThzgXzJiv8Mbl-67" value="" style="edgeStyle=orthogonalEdgeStyle;rounded=0;orthogonalLoop=1;jettySize=auto;html=1;strokeWidth=2;" edge="1" parent="1" source="Rc3iu7sThzgXzJiv8Mbl-22" target="Rc3iu7sThzgXzJiv8Mbl-66">
          <mxGeometry relative="1" as="geometry" />
        </mxCell>
        <mxCell id="Rc3iu7sThzgXzJiv8Mbl-22" value="Authorization Middleware" style="rounded=0;whiteSpace=wrap;html=1;" vertex="1" parent="1">
          <mxGeometry x="489.00000000000006" y="109" width="98" height="60" as="geometry" />
        </mxCell>
        <mxCell id="Rc3iu7sThzgXzJiv8Mbl-41" style="edgeStyle=orthogonalEdgeStyle;rounded=0;orthogonalLoop=1;jettySize=auto;html=1;exitX=0.5;exitY=1;exitDx=0;exitDy=0;endArrow=none;endFill=0;fillColor=#e51400;strokeColor=#B20000;" edge="1" parent="1" source="Rc3iu7sThzgXzJiv8Mbl-23">
          <mxGeometry relative="1" as="geometry">
            <mxPoint x="597.8571428571429" y="327.80952380952374" as="targetPoint" />
            <Array as="points">
              <mxPoint x="537" y="262" />
              <mxPoint x="537" y="275" />
              <mxPoint x="598" y="275" />
            </Array>
          </mxGeometry>
        </mxCell>
        <mxCell id="Rc3iu7sThzgXzJiv8Mbl-69" value="" style="edgeStyle=orthogonalEdgeStyle;rounded=0;orthogonalLoop=1;jettySize=auto;html=1;strokeWidth=2;" edge="1" parent="1" source="Rc3iu7sThzgXzJiv8Mbl-23" target="Rc3iu7sThzgXzJiv8Mbl-68">
          <mxGeometry relative="1" as="geometry" />
        </mxCell>
        <mxCell id="Rc3iu7sThzgXzJiv8Mbl-23" value="Authorization Middleware" style="rounded=0;whiteSpace=wrap;html=1;" vertex="1" parent="1">
          <mxGeometry x="489.00000000000006" y="202" width="98" height="60" as="geometry" />
        </mxCell>
        <mxCell id="Rc3iu7sThzgXzJiv8Mbl-24" value="HTTP response" style="rounded=0;whiteSpace=wrap;html=1;" vertex="1" parent="1">
          <mxGeometry x="24" y="527" width="57" height="57" as="geometry" />
        </mxCell>
        <mxCell id="Rc3iu7sThzgXzJiv8Mbl-42" style="edgeStyle=orthogonalEdgeStyle;rounded=0;orthogonalLoop=1;jettySize=auto;html=1;exitX=0.5;exitY=1;exitDx=0;exitDy=0;entryX=1;entryY=0.5;entryDx=0;entryDy=0;fillColor=#e51400;strokeColor=#B20000;" edge="1" parent="1" source="Rc3iu7sThzgXzJiv8Mbl-26" target="Rc3iu7sThzgXzJiv8Mbl-24">
          <mxGeometry relative="1" as="geometry" />
        </mxCell>
        <mxCell id="Rc3iu7sThzgXzJiv8Mbl-26" value="Limit exceeded (err)" style="rounded=0;whiteSpace=wrap;html=1;" vertex="1" parent="1">
          <mxGeometry x="129" y="467" width="87" height="50" as="geometry" />
        </mxCell>
        <mxCell id="Rc3iu7sThzgXzJiv8Mbl-43" style="edgeStyle=orthogonalEdgeStyle;rounded=0;orthogonalLoop=1;jettySize=auto;html=1;exitX=0.5;exitY=1;exitDx=0;exitDy=0;entryX=1;entryY=0.5;entryDx=0;entryDy=0;fillColor=#e51400;strokeColor=#B20000;" edge="1" parent="1" source="Rc3iu7sThzgXzJiv8Mbl-29" target="Rc3iu7sThzgXzJiv8Mbl-24">
          <mxGeometry relative="1" as="geometry" />
        </mxCell>
        <mxCell id="Rc3iu7sThzgXzJiv8Mbl-29" value="Authentication failed (err)" style="rounded=0;whiteSpace=wrap;html=1;" vertex="1" parent="1">
          <mxGeometry x="241" y="467" width="87" height="50" as="geometry" />
        </mxCell>
        <mxCell id="Rc3iu7sThzgXzJiv8Mbl-44" style="edgeStyle=orthogonalEdgeStyle;rounded=0;orthogonalLoop=1;jettySize=auto;html=1;entryX=1;entryY=0.5;entryDx=0;entryDy=0;fillColor=#e51400;strokeColor=#B20000;" edge="1" parent="1" source="Rc3iu7sThzgXzJiv8Mbl-34" target="Rc3iu7sThzgXzJiv8Mbl-24">
          <mxGeometry relative="1" as="geometry">
            <Array as="points">
              <mxPoint x="472" y="556" />
            </Array>
          </mxGeometry>
        </mxCell>
        <mxCell id="Rc3iu7sThzgXzJiv8Mbl-34" value="Route not found (&lt;span style=&quot;caret-color: rgba(0, 0, 0, 0);&quot;&gt;err&lt;/span&gt;)" style="rounded=0;whiteSpace=wrap;html=1;" vertex="1" parent="1">
          <mxGeometry x="428" y="467" width="87" height="50" as="geometry" />
        </mxCell>
        <mxCell id="Rc3iu7sThzgXzJiv8Mbl-45" style="edgeStyle=orthogonalEdgeStyle;rounded=0;orthogonalLoop=1;jettySize=auto;html=1;entryX=1;entryY=0.5;entryDx=0;entryDy=0;fillColor=#e51400;strokeColor=#B20000;" edge="1" parent="1" source="Rc3iu7sThzgXzJiv8Mbl-38" target="Rc3iu7sThzgXzJiv8Mbl-24">
          <mxGeometry relative="1" as="geometry">
            <Array as="points">
              <mxPoint x="572" y="556" />
            </Array>
          </mxGeometry>
        </mxCell>
        <mxCell id="Rc3iu7sThzgXzJiv8Mbl-38" value="User not Authorized&lt;div&gt;&lt;span style=&quot;background-color: transparent; color: light-dark(rgb(0, 0, 0), rgb(255, 255, 255));&quot;&gt;(&lt;/span&gt;&lt;span style=&quot;caret-color: rgba(0, 0, 0, 0); background-color: transparent; color: light-dark(rgb(0, 0, 0), rgb(255, 255, 255));&quot;&gt;err&lt;/span&gt;&lt;span style=&quot;background-color: transparent; color: light-dark(rgb(0, 0, 0), rgb(255, 255, 255));&quot;&gt;)&lt;/span&gt;&lt;/div&gt;" style="rounded=0;whiteSpace=wrap;html=1;" vertex="1" parent="1">
          <mxGeometry x="528" y="467" width="87" height="50" as="geometry" />
        </mxCell>
        <mxCell id="Rc3iu7sThzgXzJiv8Mbl-47" value="GET /customers/{customerId}/items" style="text;strokeColor=none;align=center;fillColor=none;html=1;verticalAlign=middle;whiteSpace=wrap;rounded=0;" vertex="1" parent="1">
          <mxGeometry x="174" y="124" width="241.29" height="30" as="geometry" />
        </mxCell>
        <mxCell id="Rc3iu7sThzgXzJiv8Mbl-49" value="GET /customers/summaries" style="text;whiteSpace=wrap;" vertex="1" parent="1">
          <mxGeometry x="238.99619047619035" y="216.9961904761905" width="176" height="36" as="geometry" />
        </mxCell>
        <mxCell id="Rc3iu7sThzgXzJiv8Mbl-56" value="" style="edgeStyle=orthogonalEdgeStyle;rounded=0;orthogonalLoop=1;jettySize=auto;html=1;strokeWidth=2;" edge="1" parent="1" source="Rc3iu7sThzgXzJiv8Mbl-50" target="Rc3iu7sThzgXzJiv8Mbl-55">
          <mxGeometry relative="1" as="geometry" />
        </mxCell>
        <mxCell id="Rc3iu7sThzgXzJiv8Mbl-64" style="edgeStyle=orthogonalEdgeStyle;rounded=0;orthogonalLoop=1;jettySize=auto;html=1;entryX=0.5;entryY=0;entryDx=0;entryDy=0;fillColor=#e51400;strokeColor=#B20000;" edge="1" parent="1">
          <mxGeometry relative="1" as="geometry">
            <mxPoint x="781.9975862068967" y="77" as="sourcePoint" />
            <mxPoint x="901.67" y="467" as="targetPoint" />
            <Array as="points">
              <mxPoint x="782" y="93" />
              <mxPoint x="791" y="93" />
              <mxPoint x="791" y="452" />
              <mxPoint x="902" y="452" />
              <mxPoint x="902" y="467" />
            </Array>
          </mxGeometry>
        </mxCell>
        <mxCell id="Rc3iu7sThzgXzJiv8Mbl-50" value="Orders&lt;div&gt;Processing&lt;/div&gt;" style="rounded=0;whiteSpace=wrap;html=1;" vertex="1" parent="1">
          <mxGeometry x="743" y="17" width="85.7" height="60" as="geometry" />
        </mxCell>
        <mxCell id="Rc3iu7sThzgXzJiv8Mbl-62" value="" style="edgeStyle=orthogonalEdgeStyle;rounded=0;orthogonalLoop=1;jettySize=auto;html=1;strokeWidth=2;" edge="1" parent="1" source="Rc3iu7sThzgXzJiv8Mbl-55" target="Rc3iu7sThzgXzJiv8Mbl-61">
          <mxGeometry relative="1" as="geometry" />
        </mxCell>
        <mxCell id="Rc3iu7sThzgXzJiv8Mbl-55" value="Orders&lt;div&gt;Store in DB&lt;/div&gt;" style="rounded=0;whiteSpace=wrap;html=1;" vertex="1" parent="1">
          <mxGeometry x="860" y="17" width="85.7" height="60" as="geometry" />
        </mxCell>
        <mxCell id="Rc3iu7sThzgXzJiv8Mbl-71" style="edgeStyle=orthogonalEdgeStyle;rounded=0;orthogonalLoop=1;jettySize=auto;html=1;exitX=0.5;exitY=1;exitDx=0;exitDy=0;fillColor=#e51400;strokeColor=#B20000;endArrow=none;endFill=0;" edge="1" parent="1" source="Rc3iu7sThzgXzJiv8Mbl-57">
          <mxGeometry relative="1" as="geometry">
            <mxPoint x="672.166666666667" y="555" as="targetPoint" />
          </mxGeometry>
        </mxCell>
        <mxCell id="Rc3iu7sThzgXzJiv8Mbl-57" value="&lt;span style=&quot;caret-color: rgba(0, 0, 0, 0);&quot;&gt;Invalid&lt;/span&gt;&lt;div&gt;Order(s)&amp;nbsp;&lt;span style=&quot;background-color: transparent; color: light-dark(rgb(0, 0, 0), rgb(255, 255, 255));&quot;&gt;&amp;nbsp;(&lt;/span&gt;&lt;span style=&quot;caret-color: rgba(0, 0, 0, 0);&quot;&gt;err&lt;/span&gt;&lt;span style=&quot;background-color: transparent; color: light-dark(rgb(0, 0, 0), rgb(255, 255, 255));&quot;&gt;)&lt;/span&gt;&lt;/div&gt;" style="rounded=0;whiteSpace=wrap;html=1;" vertex="1" parent="1">
          <mxGeometry x="628.3" y="467" width="87" height="50" as="geometry" />
        </mxCell>
        <mxCell id="Rc3iu7sThzgXzJiv8Mbl-59" value="Error processing orders (&lt;span style=&quot;caret-color: rgba(0, 0, 0, 0);&quot;&gt;err&lt;/span&gt;)" style="rounded=0;whiteSpace=wrap;html=1;" vertex="1" parent="1">
          <mxGeometry x="856" y="467" width="99" height="50" as="geometry" />
        </mxCell>
        <mxCell id="Rc3iu7sThzgXzJiv8Mbl-63" style="edgeStyle=orthogonalEdgeStyle;rounded=0;orthogonalLoop=1;jettySize=auto;html=1;entryX=1;entryY=0.5;entryDx=0;entryDy=0;strokeWidth=2;" edge="1" parent="1" source="Rc3iu7sThzgXzJiv8Mbl-61" target="Rc3iu7sThzgXzJiv8Mbl-24">
          <mxGeometry relative="1" as="geometry">
            <Array as="points">
              <mxPoint x="1119" y="47" />
              <mxPoint x="1119" y="556" />
            </Array>
          </mxGeometry>
        </mxCell>
        <mxCell id="Rc3iu7sThzgXzJiv8Mbl-61" value="OK&lt;div&gt;(res)&lt;/div&gt;" style="rounded=0;whiteSpace=wrap;html=1;" vertex="1" parent="1">
          <mxGeometry x="992" y="17" width="85.7" height="60" as="geometry" />
        </mxCell>
        <mxCell id="Rc3iu7sThzgXzJiv8Mbl-75" style="edgeStyle=orthogonalEdgeStyle;rounded=0;orthogonalLoop=1;jettySize=auto;html=1;entryX=0.5;entryY=0;entryDx=0;entryDy=0;fillColor=#e51400;strokeColor=#B20000;" edge="1" parent="1" source="Rc3iu7sThzgXzJiv8Mbl-66" target="Rc3iu7sThzgXzJiv8Mbl-74">
          <mxGeometry relative="1" as="geometry">
            <Array as="points">
              <mxPoint x="643" y="193" />
              <mxPoint x="762" y="193" />
              <mxPoint x="762" y="452" />
              <mxPoint x="779" y="452" />
            </Array>
          </mxGeometry>
        </mxCell>
        <mxCell id="Rc3iu7sThzgXzJiv8Mbl-78" style="edgeStyle=orthogonalEdgeStyle;rounded=0;orthogonalLoop=1;jettySize=auto;html=1;entryX=0;entryY=0.5;entryDx=0;entryDy=0;strokeWidth=2;" edge="1" parent="1" source="Rc3iu7sThzgXzJiv8Mbl-66" target="Rc3iu7sThzgXzJiv8Mbl-77">
          <mxGeometry relative="1" as="geometry" />
        </mxCell>
        <mxCell id="Rc3iu7sThzgXzJiv8Mbl-89" style="edgeStyle=orthogonalEdgeStyle;rounded=0;orthogonalLoop=1;jettySize=auto;html=1;fillColor=#e51400;strokeColor=#B20000;endArrow=none;endFill=0;" edge="1" parent="1" source="Rc3iu7sThzgXzJiv8Mbl-66">
          <mxGeometry relative="1" as="geometry">
            <mxPoint x="827.1428571428571" y="183.28571428571433" as="targetPoint" />
            <Array as="points">
              <mxPoint x="696" y="180" />
              <mxPoint x="827" y="180" />
            </Array>
          </mxGeometry>
        </mxCell>
        <mxCell id="Rc3iu7sThzgXzJiv8Mbl-66" value="Fetch data from DB" style="rounded=0;whiteSpace=wrap;html=1;" vertex="1" parent="1">
          <mxGeometry x="620" y="109" width="98" height="60" as="geometry" />
        </mxCell>
        <mxCell id="Rc3iu7sThzgXzJiv8Mbl-83" style="edgeStyle=orthogonalEdgeStyle;rounded=0;orthogonalLoop=1;jettySize=auto;html=1;entryX=0;entryY=0.5;entryDx=0;entryDy=0;strokeWidth=2;" edge="1" parent="1" source="Rc3iu7sThzgXzJiv8Mbl-68" target="Rc3iu7sThzgXzJiv8Mbl-81">
          <mxGeometry relative="1" as="geometry" />
        </mxCell>
        <mxCell id="Rc3iu7sThzgXzJiv8Mbl-68" value="Fetch data from DB" style="rounded=0;whiteSpace=wrap;html=1;" vertex="1" parent="1">
          <mxGeometry x="622.15" y="202" width="98" height="60" as="geometry" />
        </mxCell>
        <mxCell id="Rc3iu7sThzgXzJiv8Mbl-70" value="DB error&lt;div&gt;(&lt;span style=&quot;caret-color: rgba(0, 0, 0, 0);&quot;&gt;err&lt;/span&gt;)&lt;/div&gt;" style="rounded=0;whiteSpace=wrap;html=1;" vertex="1" parent="1">
          <mxGeometry x="973" y="467" width="99" height="50" as="geometry" />
        </mxCell>
        <mxCell id="Rc3iu7sThzgXzJiv8Mbl-72" style="edgeStyle=orthogonalEdgeStyle;rounded=0;orthogonalLoop=1;jettySize=auto;html=1;exitX=0.5;exitY=1;exitDx=0;exitDy=0;fillColor=#e51400;strokeColor=#B20000;endArrow=none;endFill=0;" edge="1" parent="1">
          <mxGeometry relative="1" as="geometry">
            <mxPoint x="905.246666666667" y="555" as="targetPoint" />
            <mxPoint x="905.08" y="517" as="sourcePoint" />
          </mxGeometry>
        </mxCell>
        <mxCell id="Rc3iu7sThzgXzJiv8Mbl-73" style="edgeStyle=orthogonalEdgeStyle;rounded=0;orthogonalLoop=1;jettySize=auto;html=1;exitX=0.5;exitY=1;exitDx=0;exitDy=0;fillColor=#e51400;strokeColor=#B20000;endArrow=none;endFill=0;" edge="1" parent="1">
          <mxGeometry relative="1" as="geometry">
            <mxPoint x="1022.246666666667" y="555" as="targetPoint" />
            <mxPoint x="1022.08" y="517" as="sourcePoint" />
          </mxGeometry>
        </mxCell>
        <mxCell id="Rc3iu7sThzgXzJiv8Mbl-74" value="Invalid&lt;div&gt;CustomerId (&lt;span style=&quot;caret-color: rgba(0, 0, 0, 0);&quot;&gt;err&lt;/span&gt;)&lt;/div&gt;" style="rounded=0;whiteSpace=wrap;html=1;" vertex="1" parent="1">
          <mxGeometry x="735" y="467" width="87" height="50" as="geometry" />
        </mxCell>
        <mxCell id="Rc3iu7sThzgXzJiv8Mbl-76" style="edgeStyle=orthogonalEdgeStyle;rounded=0;orthogonalLoop=1;jettySize=auto;html=1;exitX=0.5;exitY=1;exitDx=0;exitDy=0;fillColor=#e51400;strokeColor=#B20000;endArrow=none;endFill=0;" edge="1" parent="1">
          <mxGeometry relative="1" as="geometry">
            <mxPoint x="780.166666666667" y="555" as="targetPoint" />
            <mxPoint x="780" y="517" as="sourcePoint" />
          </mxGeometry>
        </mxCell>
        <mxCell id="Rc3iu7sThzgXzJiv8Mbl-80" value="" style="edgeStyle=orthogonalEdgeStyle;rounded=0;orthogonalLoop=1;jettySize=auto;html=1;strokeWidth=2;" edge="1" parent="1" source="Rc3iu7sThzgXzJiv8Mbl-77" target="Rc3iu7sThzgXzJiv8Mbl-79">
          <mxGeometry relative="1" as="geometry" />
        </mxCell>
        <mxCell id="Rc3iu7sThzgXzJiv8Mbl-77" value="Convert data to&amp;nbsp;&lt;div&gt;JSON&lt;/div&gt;" style="rounded=0;whiteSpace=wrap;html=1;" vertex="1" parent="1">
          <mxGeometry x="860" y="109" width="98" height="60" as="geometry" />
        </mxCell>
        <mxCell id="Rc3iu7sThzgXzJiv8Mbl-85" style="edgeStyle=orthogonalEdgeStyle;rounded=0;orthogonalLoop=1;jettySize=auto;html=1;exitX=1;exitY=0.5;exitDx=0;exitDy=0;endArrow=none;endFill=0;strokeWidth=2;" edge="1" parent="1" source="Rc3iu7sThzgXzJiv8Mbl-79">
          <mxGeometry relative="1" as="geometry">
            <mxPoint x="1118.8333333333335" y="139.16666666666674" as="targetPoint" />
          </mxGeometry>
        </mxCell>
        <mxCell id="Rc3iu7sThzgXzJiv8Mbl-79" value="&lt;div&gt;JSON&lt;/div&gt;&lt;div&gt;(res)&lt;/div&gt;" style="rounded=0;whiteSpace=wrap;html=1;" vertex="1" parent="1">
          <mxGeometry x="992" y="109" width="85.7" height="60" as="geometry" />
        </mxCell>
        <mxCell id="Rc3iu7sThzgXzJiv8Mbl-84" value="" style="edgeStyle=orthogonalEdgeStyle;rounded=0;orthogonalLoop=1;jettySize=auto;html=1;strokeWidth=2;" edge="1" parent="1" source="Rc3iu7sThzgXzJiv8Mbl-81" target="Rc3iu7sThzgXzJiv8Mbl-82">
          <mxGeometry relative="1" as="geometry" />
        </mxCell>
        <mxCell id="Rc3iu7sThzgXzJiv8Mbl-81" value="Totalize and convert data to&amp;nbsp;&lt;div&gt;JSON&lt;/div&gt;" style="rounded=0;whiteSpace=wrap;html=1;" vertex="1" parent="1">
          <mxGeometry x="860" y="202" width="98" height="60" as="geometry" />
        </mxCell>
        <mxCell id="Rc3iu7sThzgXzJiv8Mbl-86" style="edgeStyle=orthogonalEdgeStyle;rounded=0;orthogonalLoop=1;jettySize=auto;html=1;exitX=1;exitY=0.5;exitDx=0;exitDy=0;endArrow=none;endFill=0;strokeWidth=2;" edge="1" parent="1">
          <mxGeometry relative="1" as="geometry">
            <mxPoint x="1118.5333333333335" y="231.74666666666673" as="targetPoint" />
            <mxPoint x="1062.7" y="231.57999999999998" as="sourcePoint" />
          </mxGeometry>
        </mxCell>
        <mxCell id="Rc3iu7sThzgXzJiv8Mbl-88" style="edgeStyle=orthogonalEdgeStyle;rounded=0;orthogonalLoop=1;jettySize=auto;html=1;entryX=0.5;entryY=0;entryDx=0;entryDy=0;fillColor=#e51400;strokeColor=#B20000;" edge="1" parent="1" source="Rc3iu7sThzgXzJiv8Mbl-55" target="Rc3iu7sThzgXzJiv8Mbl-70">
          <mxGeometry relative="1" as="geometry">
            <Array as="points">
              <mxPoint x="903" y="94" />
              <mxPoint x="827" y="94" />
              <mxPoint x="827" y="433" />
              <mxPoint x="1023" y="433" />
            </Array>
          </mxGeometry>
        </mxCell>
        <mxCell id="Rc3iu7sThzgXzJiv8Mbl-82" value="&lt;div&gt;JSON&lt;/div&gt;&lt;div&gt;(res)&lt;/div&gt;" style="rounded=0;whiteSpace=wrap;html=1;" vertex="1" parent="1">
          <mxGeometry x="992" y="202" width="85.7" height="60" as="geometry" />
        </mxCell>
        <mxCell id="Rc3iu7sThzgXzJiv8Mbl-90" style="edgeStyle=orthogonalEdgeStyle;rounded=0;orthogonalLoop=1;jettySize=auto;html=1;fillColor=#e51400;strokeColor=#B20000;endArrow=none;endFill=0;" edge="1" parent="1">
          <mxGeometry relative="1" as="geometry">
            <mxPoint x="827.1428571428571" y="276.28571428571433" as="targetPoint" />
            <mxPoint x="696" y="262" as="sourcePoint" />
            <Array as="points">
              <mxPoint x="696" y="273" />
              <mxPoint x="827" y="273" />
            </Array>
          </mxGeometry>
        </mxCell>
      </root>
    </mxGraphModel>
  </diagram>
</mxfile>
